{"title":"The.Nut.Job.2014.BRRip.480p.x264.AAC-VYTO [P2PDL]","uid":9945778,"size":320386432,"categoryP":"video","categoryS":"movies","magnet":"?xt=urn:btih:f0d0672e71dc807d36abc3a711d5bb3ee56dea8d&amp;dn=The.Nut.Job.2014.BRRip.480p.x264.AAC-VYTO+%5BP2PDL%5D&amp;tr=udp%3A%2F%2Ftracker.openbittorrent.com%3A80&amp;tr=udp%3A%2F%2Fopen.demonii.com%3A1337&amp;tr=udp%3A%2F%2Ftracker.coppersurfer.tk%3A6969&amp;tr=udp%3A%2F%2Fexodus.desync.com%3A6969","seeders":1,"leechers":0,"uploader":"ValidusVyto","files":-1,"time":1397312824,"description":"____    ____ ____    ____ .___________.  ______   \n     /   /      /   / |           | /  __    \n    /   /      /   /  `---|  |----`|  |  |  | \n        /     _    _/       |  |     |  |  |  | \n       /        |  |         |  |     |  `--'  | \n    __/         |__|         |__|      ______/  \n                                                  \nPresenting Small Encodes With Quality For Years!\n                                                                                                   \n\n\nThe.Nut.Job.2014.BRRip.480p.x264.AAC-VYTO\n\n\nGenre: Animation | Adventure | Comedy \n\n\n[quote]Format                         : MPEG-4\nFile size                      : 301 MiB\nDuration                       : 1h 25mn\nOverall bit rate               : 490 Kbps\n\nVideo\nFormat                         : AVC\nBit rate                       : 447 Kbps\nWidth                          : 720 pixels\nHeight                         : 400 pixels\nDisplay aspect ratio           : 16:9\nFrame rate mode                : Constant\nBit depth                      : 8 bits\nStream size                    : 274 MiB (91%)\nWriting library                : x264 core 142 r2409 d6b4e63\n\nAudio\nFormat                         : AAC\nBit rate mode                  : Variable\nBit rate                       : 39.9 Kbps\nChannel(s)                     : 2 channels\nChannel positions              : Front: L R\nSampling rate                  : 48.0 KHz\nStream size                    : 24.5 MiB (8%)\nLanguage                       : English\n\nSubtitle                       : Yes (English)[quote]\n &lt;a href=&quot;\nhttp://ultraimg.com/images/G46kc.png&quot; rel=&quot;nofollow&quot; target=&quot;_NEW&quot;&gt;\nhttp://ultraimg.com/images/G46kc.png&lt;/a&gt; &lt;a href=&quot;\nhttp://ultraimg.com/images/w624x.png&quot; rel=&quot;nofollow&quot; target=&quot;_NEW&quot;&gt;\nhttp://ultraimg.com/images/w624x.png&lt;/a&gt; &lt;a href=&quot;\nhttp://ultraimg.com/images/2RliX.png&quot; rel=&quot;nofollow&quot; target=&quot;_NEW&quot;&gt;\nhttp://ultraimg.com/images/2RliX.png&lt;/a&gt; &lt;a href=&quot;\nhttp://ultraimg.com/images/EGYaM.png&quot; rel=&quot;nofollow&quot; target=&quot;_NEW&quot;&gt;\nhttp://ultraimg.com/images/EGYaM.png&lt;/a&gt; &lt;a href=&quot;\nhttp://ultraimg.com/images/Fs7Zu.png&quot; rel=&quot;nofollow&quot; target=&quot;_NEW&quot;&gt;\nhttp://ultraimg.com/images/Fs7Zu.png&lt;/a&gt; &lt;a href=&quot;\nhttp://ultraimg.com/images/BN5v9.png&quot; rel=&quot;nofollow&quot; target=&quot;_NEW&quot;&gt;\nhttp://ultraimg.com/images/BN5v9.png&lt;/a&gt;\n\n\n----------------------------------------------------------------------------------------------------\n\n\nRecommend to you to use latest version of VLC player. Install K-Lite Codec Pack or shark007 codecs\nin case of any kind of problem in playback (For non-VLC Media Player users). Alternatively, install\nCore AVC codecs, the fastest decoder that there is coupled with Community Center Codec Pack and play\non Windows Media Player Classic. Check sample to be sure.\n\nEncoder Notes:Looking For Early Access To Anything You Can Provide DVDScr, R5, DVDR, BluRay, Direct\nAudio, Music Releases and Seedboxes. We require dedicated servers, so as to do more \nand fast releases of movies.","torrent":{"xt":"urn:btih:f0d0672e71dc807d36abc3a711d5bb3ee56dea8d","amp;dn":"The.Nut.Job.2014.BRRip.480p.x264.AAC-VYTO+%5BP2PDL%5D","amp;tr":["udp%3A%2F%2Ftracker.openbittorrent.com%3A80","udp%3A%2F%2Fopen.demonii.com%3A1337","udp%3A%2F%2Ftracker.coppersurfer.tk%3A6969","udp%3A%2F%2Fexodus.desync.com%3A6969"],"infoHash":"f0d0672e71dc807d36abc3a711d5bb3ee56dea8d","infoHashBuffer":{"type":"Buffer","data":[240,208,103,46,113,220,128,125,54,171,195,167,17,213,187,62,229,109,234,141]},"announce":[],"urlList":[]}}